<svg height="384" viewBox="0 0 959 384" width="959" xmlns="http://www.w3.org/2000/svg"><g fill="none" fill-rule="evenodd" transform="translate(70 70)"><path d="m146.160798-.00022685-146.15988941 108.88888885h59.84409971v135.475926l86.3157897-64.677732z" fill="#f17422"/><g fill="#d6d3d0" transform="translate(187.260388 82.12037)"><path d="m100.070338 61.9548287v-.2676852c0-8.7995833-6.4350693-16.1563889-15.2665374-16.1563889-9.0904156 0-14.871302 7.2297685-14.871302 15.8887037v.2676852c0 8.6680093 6.3260388 16.0384259 15.1302493 16.0384259 9.0995014 0 15.0075901-7.2411111 15.0075901-15.7707407m-54.3357895 0v-.2676852c0-20.2329166 16.5817174-37.1878241 39.3281994-37.1878241 22.7691971 0 39.2214401 16.6940278 39.2214401 36.9201389v.2676852c0 20.2329167-16.58626 37.1900926-39.4803874 37.1900926-22.6215513 0-39.0692521-16.6849537-39.0692521-36.9224074"/><path d="m184.342033 61.9548287v-.2676852c0-8.7995833-6.444155-16.1563889-15.261994-16.1563889-9.076787 0-14.864488 7.2297685-14.864488 15.8887037v.2676852c0 8.6680093 6.321496 16.0384259 15.134792 16.0384259 9.072244 0 14.99169-7.2411111 14.99169-15.7707407m-54.326703 0v-.2676852c0-20.2329166 16.554459-37.1878241 39.335013-37.1878241 22.762383 0 39.214627 16.6940278 39.214627 36.9201389v.2676852c0 20.2329167-16.586261 37.1900926-39.484931 37.1900926-22.628366 0-39.064709-16.6849537-39.064709-36.9224074"/><path d="m445.850482 61.9548287v-.2676852c0-8.7995833-6.446427-16.1563889-15.264266-16.1563889-9.076787 0-14.855402 7.2297685-14.855402 15.8887037v.2676852c0 8.6680093 6.316953 16.0384259 15.121164 16.0384259 9.076787 0 14.998504-7.2411111 14.998504-15.7707407m-54.326704 0v-.2676852c0-20.2329166 16.574903-37.1878241 39.3282-37.1878241 22.776011 0 39.216897 16.6940278 39.216897 36.9201389v.2676852c0 20.2329167-16.577174 37.1900926-39.482659 37.1900926-22.623823 0-39.062438-16.6849537-39.062438-36.9224074"/><path d="m476.151413 61.8284722v-.2676852c0-20.1036111 15.53457-37.060787 38.035734-37.060787 14.596454 0 24.331967 6.3200926 30.383158 15.7707407l-16.833851 12.6288426c-3.554847-4.6187037-7.364099-7.4929166-13.29036-7.4929166-8.143213 0-14.076288 7.2275-14.076288 15.8864352v.2676851c0 9.1943056 5.803601 16.17 14.201219 16.17 6.058005 0 9.876343-2.7743981 13.678781-7.3726851l16.70892 12.1002777c-6.569086 9.7206019-16.050194 16.2947685-31.566593 16.2947685-21.576676 0-37.24072-16.8210648-37.24072-36.9246759"/><path d="m632.039773 26.8050417h-32.929474l-20.100221 15.0289352v-40.01893523h-24.98615v95.27777773h24.98615v-29.3296759l3.986426-3.1169444 22.68061 32.4466203h26.099169l-31.759668-45.7174537 32.023158-23.896574z"/><path d="m53.0228809 27h-53.0228809v70.3081944h24.9679778l.0181718-.0385648v-48.6869444l28.0367313-20.9316204z"/><path d="m268.733662 87.9785926 9.069972-14.3846759c8.172743 5.3854629 17.251801 7.8626852 24.613629 7.8626852 4.354405 0 6.460056-1.6469445 6.460056-4.1218982v-.2676852c0-2.8923611-3.80471-5.145-11.318726-7.1344907-13.892299-3.6818056-25.515402-9.7568982-25.515402-21.6507408v-.249537c0-15.124213 12.072853-23.5313426 28.538726-23.5313426 10.387424 0 19.820831 2.6224074 27.954958 7.4225926l-7.893351 15.5892593c-7.057452-3.9631019-13.44482-5.9231019-20.32964-5.9231019-3.804709 0-5.796787 1.6968519-5.796787 3.8156482v.2608796c0 2.7494444 3.870582 4.7843055 11.236953 7.0369444 14.078559 3.9358797 25.60626 10.035926 25.60626 21.857176v.2676851c0 15.6323612-11.702604 23.7967593-29.063435 23.7967593-11.986537 0-23.829972-3.557037-33.563213-10.6461574"/><path d="m246.839662 22.8736991c0-4.6028241 2.489529-6.7102778 7.093795-6.7102778h9.342549v-13.94685186c-3.813795-1.16375-8.67928-1.95546296-16.184211-1.95546296-8.55662 0-14.337507 1.81708333-18.676011 6.18398148-4.209031 4.19449074-6.026205 10.24009264-6.026205 18.38407404v1.9395834h-9.085873v20.4166666h9.085873v49.9074074h24.963435v-49.9074074h15.922992v-20.3803703h-16.436344z"/><path d="m376.850094 77.7146806c-4.597451 0-7.098338-2.3161575-6.814404-7.105v-23.4247223h15.900277v-20.4166666h-15.900277v-18.14814818h-24.98615v18.14814818h-9.085872v20.4166666h9.085872v28.2838889c0 16.66 8.254515 23.5313426 23.241662 23.5313426 6.984765 0 12.901939-1.715 17.644765-4.1967592v-17.08875z"/></g></g></svg>